<?xml version="1.0" encoding="UTF-8"?><svg xmlns="http://www.w3.org/2000/svg" viewBox="0 0 84.34 70.09"><defs><style>.d{fill:#fff;}.e{fill:#ff2b5a;}.f{fill:#282828;}</style></defs><g id="a"/><g id="b"><g id="c"><g><path class="f" d="M84.34,39.36c0,18.05-27.51,30.74-42.17,30.74S0,57.4,0,39.36,5.21,6.67,42.17,6.67s42.17,14.63,42.17,32.68Z"/><path class="f" d="M7.94,22.57S12.73,1.21,14.99,.05s15.35,16.68,15.35,16.68c0,0-.87,20.91-7.05,22.52-6.19,1.61-15.35-16.68-15.35-16.68Z"/><path class="f" d="M75.66,22.57S70.87,1.21,68.61,.05s-15.35,16.68-15.35,16.68c0,0,.87,20.91,7.05,22.52,6.19,1.61,15.35-16.68,15.35-16.68Z"/><path class="d" d="M25.81,37.63c-9.18-3.57-15.65-8.72-17.87-6.63-3.29,3.09-.07,16.74,9.11,20.3,9.18,3.57,18.57,1.15,20.68-5.52,2.11-6.67-2.74-4.58-11.92-8.15Z"/><path class="d" d="M46.1,61.3l-2.32,2.57c-.89,.99-2.34,.99-3.23,0l-2.32-2.57c-.5-.55-.15-1.5,.56-1.5h6.75c.71,0,1.06,.95,.56,1.5Z"/><path class="e" d="M66.19,62.99s-2.36-42.69-23.55-56.32h-2.26s-.31-1.09,2.01-1.07c.78,0,2.25-.05,2.75,0,1.01,.1,2.76,1.18,2.76,1.18,0,0,18.67,9.81,21.72,54.12,0,0,.17,1.02-.49,1.54s-1.47,.86-2.23,1.28c-1.47,.82-2.17,.06-2.17,.06l1.46-.79Z"/><path class="e" d="M56.13,33.88c9.18-3.57,16.95-8.95,19.53-5.29,5.07,7.19,.81,18.05-8.37,21.62-9.18,3.57-17.65,2.9-20.24-3.6-1.63-4.08-.1-9.17,9.08-12.73Z"/><path class="f" d="M24.69,36.58c-.2-6.94-1.61-12.55-3.16-12.32s-2.62,6.24-2.43,13.18c.2,6.94,1.68,11.57,3.22,11.33s2.56-5.25,2.36-12.19Z"/></g></g></g></svg>